<svg width="40" height="40" viewBox="0 0 40 40" fill="none" xmlns="http://www.w3.org/2000/svg">
<circle cx="20" cy="20" r="20" fill="#44B3D8"/>
<path d="M30.9466 15.1741C30.8974 14.0583 30.7169 13.2911 30.4584 12.6264C30.1917 11.9209 29.7814 11.2892 29.2438 10.764C28.7186 10.2307 28.0826 9.81631 27.3851 9.55382C26.7164 9.29534 25.9531 9.1149 24.8371 9.0657C23.7127 9.01234 23.3558 9 20.5041 9C17.6524 9 17.2954 9.01234 16.1753 9.06154C15.0592 9.11073 14.292 9.29133 13.6273 9.54965C12.9214 9.81631 12.2896 10.2265 11.7644 10.764C11.2309 11.2892 10.8166 11.925 10.5539 12.6224C10.2954 13.2911 10.1149 14.0541 10.0657 15.1699C10.0123 16.2941 10 16.6509 10 19.5021C10 22.3532 10.0123 22.7101 10.0615 23.8301C10.1108 24.9459 10.2914 25.713 10.5499 26.3777C10.8166 27.0833 11.2309 27.715 11.7644 28.2401C12.2896 28.7735 12.9256 29.1879 13.6231 29.4503C14.292 29.7088 15.0551 29.8893 16.1712 29.9385C17.2913 29.9878 17.6484 30 20.5001 30C23.3518 30 23.7087 29.9878 24.8289 29.9385C25.9449 29.8893 26.7122 29.7088 27.3769 29.4503C28.7885 28.9047 29.9045 27.7889 30.4502 26.3777C30.7086 25.709 30.8892 24.9459 30.9385 23.8301C30.9877 22.7101 31 22.3532 31 19.5021C31 16.6509 30.9958 16.2941 30.9466 15.1741ZM29.0552 23.748C29.01 24.7736 28.8377 25.3275 28.6941 25.6967C28.3411 26.6115 27.6149 27.3376 26.6999 27.6905C26.3306 27.8341 25.7726 28.0063 24.7509 28.0514C23.643 28.1007 23.3107 28.1129 20.5083 28.1129C17.7058 28.1129 17.3693 28.1007 16.2655 28.0514C15.2397 28.0063 14.6858 27.8341 14.3165 27.6905C13.8611 27.5222 13.4467 27.2556 13.1102 26.9069C12.7615 26.5663 12.4948 26.1561 12.3265 25.7008C12.1828 25.3316 12.0105 24.7736 11.9655 23.7522C11.9161 22.6446 11.904 22.3122 11.904 19.5103C11.904 16.7083 11.9161 16.3719 11.9655 15.2685C12.0105 14.2429 12.1828 13.689 12.3265 13.3198C12.4948 12.8644 12.7615 12.4502 13.1144 12.1136C13.4548 11.7649 13.8651 11.4983 14.3207 11.3302C14.6899 11.1866 15.248 11.0143 16.2697 10.9691C17.3775 10.9199 17.7099 10.9076 20.5123 10.9076C23.3189 10.9076 23.6512 10.9199 24.755 10.9691C25.7808 11.0143 26.3347 11.1866 26.704 11.3302C27.1594 11.4983 27.5739 11.7649 27.9103 12.1136C28.2591 12.4542 28.5258 12.8644 28.6941 13.3198C28.8377 13.689 29.01 14.2469 29.0552 15.2685C29.1044 16.3761 29.1167 16.7083 29.1167 19.5103C29.1167 22.3122 29.1044 22.6404 29.0552 23.748Z" fill="white"/>
<path d="M20.5 14C17.4636 14 15 16.4634 15 19.5C15 22.5366 17.4636 25 20.5 25C23.5366 25 26 22.5366 26 19.5C26 16.4634 23.5366 14 20.5 14ZM20.5 23.0677C18.5301 23.0677 16.9323 21.47 16.9323 19.5C16.9323 17.53 18.5301 15.9323 20.5 15.9323C22.47 15.9323 24.0677 17.53 24.0677 19.5C24.0677 21.47 22.47 23.0677 20.5 23.0677Z" fill="white"/>
<path d="M27 14C27 14.5522 26.5523 15 25.9999 15C25.4477 15 25 14.5522 25 14C25 13.4476 25.4477 13 25.9999 13C26.5523 13 27 13.4476 27 14Z" fill="white"/>
</svg>
