<svg width="40" height="40" viewBox="0 0 40 40" fill="none" xmlns="http://www.w3.org/2000/svg">
<circle cx="20" cy="20" r="20" fill="#44B3D8"/>
<path fill-rule="evenodd" clip-rule="evenodd" d="M27.086 12.9065C25.2059 11.0332 22.7056 10.0011 20.0418 10C14.5529 10 10.0857 14.4457 10.0835 19.9098C10.0828 21.6565 10.5413 23.3616 11.4128 24.8645L10 30L15.279 28.6218C16.7336 29.4115 18.3712 29.8276 20.0378 29.8281H20.0419C25.5302 29.8281 29.9979 25.3821 30 19.9177C30.0011 17.2695 28.9662 14.7797 27.086 12.9065ZM20.0418 28.1544H20.0384C18.5533 28.1538 17.0967 27.7566 15.8257 27.0062L15.5236 26.8276L12.391 27.6455L13.2271 24.6058L13.0302 24.2942C12.2017 22.9827 11.7642 21.4668 11.7649 19.9104C11.7666 15.3688 15.4797 11.6738 20.0451 11.6738C22.2559 11.6746 24.3341 12.5325 25.8967 14.0895C27.4594 15.6465 28.3195 17.7161 28.3187 19.9171C28.3168 24.4591 24.6039 28.1544 20.0418 28.1544ZM24.5819 21.9851C24.3331 21.8611 23.1097 21.2622 22.8816 21.1794C22.6537 21.0968 22.4876 21.0557 22.3219 21.3035C22.1559 21.5513 21.6792 22.1091 21.534 22.2743C21.3887 22.4396 21.2437 22.4603 20.9949 22.3363C20.746 22.2124 19.9443 21.9508 18.9938 21.1072C18.2542 20.4506 17.7549 19.6396 17.6097 19.3918C17.4647 19.1438 17.6084 19.0227 17.7188 18.8865C17.9882 18.5536 18.2579 18.2046 18.3408 18.0394C18.4239 17.8741 18.3823 17.7295 18.32 17.6056C18.2579 17.4817 17.7603 16.2628 17.553 15.7668C17.3508 15.2842 17.1459 15.3494 16.9931 15.3418C16.8481 15.3346 16.6821 15.3331 16.5162 15.3331C16.3503 15.3331 16.0807 15.395 15.8526 15.6431C15.6246 15.891 14.9818 16.49 14.9818 17.7089C14.9818 18.9277 15.8734 20.1052 15.9978 20.2705C16.1222 20.4358 17.7524 22.937 20.2484 24.0095C20.842 24.2649 21.3054 24.4171 21.6669 24.5312C22.263 24.7197 22.8053 24.6931 23.2341 24.6294C23.7122 24.5582 24.7061 24.0303 24.9136 23.4519C25.1209 22.8734 25.1209 22.3777 25.0586 22.2743C24.9966 22.171 24.8306 22.1091 24.5819 21.9851Z" fill="white"/>
</svg>
